Coordinates
version=1
nRows=29
nColumns=22
inDegrees=yes

Units are S.I. units (second, meters, Newtons, ...)
If the header above contains a line with 'inDegrees', this indicates whether rotational values are in degrees (yes) or radians (no).

endheader
time	pelvis_tilt	pelvis_list	pelvis_rotation	pelvis_tx	pelvis_ty	pelvis_tz	hip_flexion_r	hip_adduction_r	hip_rotation_r	knee_angle_r	ankle_angle_r	subtalar_angle_r	hip_flexion_l	hip_adduction_l	hip_rotation_l	knee_angle_l	ankle_angle_l	subtalar_angle_l	lumbar_extension	lumbar_bending	lumbar_rotation
      2.71000000	     -3.95221634	      1.71710016	    -23.63350165	     -0.64459631	      0.84216183	      0.11630213	     32.67731528	     -5.09644225	      6.17991688	    -14.86510721	      1.43964741	     14.47939451	    -10.84187569	     -0.05461221	      8.48394140	    -24.40859615	     20.56557860	      2.09363712	     -3.38162160	     -1.71290435	      2.39943843
      2.72000000	     -4.00079051	      1.13681277	    -23.44616817	     -0.63487622	      0.84147500	      0.12257628	     32.95855908	     -4.29038838	      6.38232059	    -17.17486315	      0.86013221	     13.56115633	    -10.84164206	     -0.69453526	      8.34167170	    -26.21510766	     19.70574704	      2.41424825	     -3.52509459	     -0.97750610	      2.63401982
      2.73000000	     -3.99855366	      0.51998240	    -23.27094295	     -0.62506872	      0.84114063	      0.12879506	     33.13121427	     -3.49743979	      6.39728847	    -19.45007025	      0.57035020	     12.53703803	    -10.71398307	     -1.33377086	      8.01582305	    -28.32313174	     18.58288434	      2.71156054	     -3.73923640	     -0.22289508	      2.88765921
      2.74000000	     -3.94999410	     -0.11432437	    -23.10293018	     -0.61519041	      0.84112920	      0.13492633	     33.17122886	     -2.73921005	      6.26190476	    -21.60523041	      0.59068575	     11.42510354	    -10.42452802	     -1.97130170	      7.47935718	    -30.75325239	     17.18971796	      2.94429138	     -4.00959881	      0.53196030	      3.15134358
      2.75000000	     -3.88227613	     -0.74628512	    -22.92022994	     -0.60526754	      0.84138011	      0.14093560	     33.08053564	     -2.03181368	      6.00084409	    -23.56876438	      0.86645445	     10.28719540	     -9.91704131	     -2.62645815	      6.73085190	    -33.51671487	     15.51294200	      3.05870137	     -4.29432657	      1.27198142	      3.44317645
      2.76000000	     -3.79354148	     -1.35747164	    -22.72681037	     -0.59534885	      0.84182245	      0.14683926	     32.85599255	     -1.37428838	      5.68406168	    -25.31778725	      1.43716544	      9.11123765	     -9.18920010	     -3.30534063	      5.77024252	    -36.59281491	     13.61096311	      3.01038332	     -4.58643632	      1.97358035	      3.73073544
      2.77000000	     -3.71532020	     -1.93498804	    -22.48906249	     -0.58550754	      0.84236047	      0.15259473	     32.54129170	     -0.77557071	      5.30966329	    -26.85597921	      2.18239074	      8.00481876	     -8.19621685	     -4.04597493	      4.63468705	    -39.96438451	     11.56314451	      2.73726035	     -4.84842932	      2.62976935	      4.01562818
      2.78000000	     -3.64754252	     -2.47566172	    -22.19538904	     -0.57579390	      0.84293830	      0.15820089	     32.14589016	     -0.23252233	      4.90035648	    -28.19612563	      3.09295460	      6.96284943	     -6.95834363	     -4.86797201	      3.38069090	    -43.57360113	      9.48739250	      2.20369487	     -5.07855554	      3.23111555	      4.28778233
      2.79000000	     -3.59501989	     -2.98138575	    -21.82954954	     -0.56626473	      0.84351845	      0.16362790	     31.68769658	      0.25479719	      4.44903700	    -29.35494012	      4.11277809	      6.00887080	     -5.49874990	     -5.78669538	      2.08409776	    -47.34653381	      7.52288526	      1.39664461	     -5.27738767	      3.77852855	      4.54353703
      2.80000000	     -3.55036140	     -3.46496517	    -21.38785306	     -0.55695221	      0.84411700	      0.16886256	     31.16183032	      0.70186754	      3.97645777	    -30.34173882	      5.19758932	      5.15417805	     -3.86982576	     -6.80003714	      0.83145560	    -51.18998065	      5.79172126	      0.34975892	     -5.45843447	      4.28126269	      4.77661981
      2.81000000	     -3.51165804	     -3.93137902	    -20.86544967	     -0.54788312	      0.84474689	      0.17386097	     30.57721795	      1.10797193	      3.46860393	    -31.16713501	      6.28514912	      4.39601778	     -2.10643250	     -7.89479448	     -0.32186623	    -55.02132955	      4.42939902	     -0.86719801	     -5.63103245	      4.74609609	      4.99624475
      2.82000000	     -3.46972100	     -4.38808487	    -20.27698010	     -0.53905806	      0.84546814	      0.17860977	     29.92509407	      1.48426179	      2.93321504	    -31.82996875	      7.33791313	      3.73951643	     -0.25858256	     -9.03751191	     -1.33140295	    -58.74660077	      3.49374579	     -2.13386375	     -5.80885100	      5.17958267	      5.21868036
      2.83000000	     -3.41706553	     -4.82630029	    -19.63336890	     -0.53046170	      0.84633361	      0.18308445	     29.20613284	      1.82387181	      2.38008044	    -32.33251823	      8.32254229	      3.17113294	      1.64205388	    -10.17998458	     -2.18279825	    -62.28742429	      3.01602695	     -3.36151581	     -5.99635946	      5.57476966	      5.46160763
      2.84000000	     -3.35545147	     -5.22807164	    -18.95504115	     -0.52206655	      0.84736854	      0.18726521	     28.42961105	      2.11598182	      1.82173525	    -32.67442169	      9.22161405	      2.67692379	      3.58057625	    -11.26328485	     -2.88409878	    -65.58261003	      2.97372789	     -4.51607358	     -6.18489936	      5.92169479	      5.73795816
      2.85000000	     -3.28073487	     -5.56898425	    -18.26509411	     -0.51385090	      0.84859980	      0.19114403	     27.60659548	      2.34292000	      1.27910540	    -32.86730968	     10.02788528	      2.24114562	      5.53643303	    -12.22410260	     -3.46748565	    -68.57675575	      3.30174955	     -5.62378372	     -6.36819652	      6.19845091	      6.05458973
      2.86000000	     -3.18823389	     -5.81805817	    -17.58805079	     -0.50578509	      0.85003093	      0.19473512	     26.75040344	      2.47666819	      0.76079071	    -32.93127836	     10.74373506	      1.86438211	      7.48537736	    -12.99570645	     -3.97488139	    -71.22364053	      3.91370254	     -6.69242840	     -6.54064143	      6.37209906	      6.44088952
      2.87000000	     -3.08097128	     -5.95123665	    -16.94797961	     -0.49784958	      0.85165619	      0.19805171	     25.87111997	      2.50230757	      0.29856229	    -32.87228835	     11.38118476	      1.54269305	      9.41214239	    -13.52832502	     -4.45080174	    -73.49267914	      4.66062239	     -7.70648211	     -6.69103051	      6.42101880	      6.90134481
      2.88000000	     -2.95905533	     -5.96419964	    -16.36839216	     -0.49002746	      0.85344976	      0.20112420	     24.98063322	      2.41797195	     -0.10375373	    -32.71815084	     11.95512654	      1.27827378	     11.29062473	    -13.80836862	     -4.94731919	    -75.36726594	      5.42306420	     -8.58927213	     -6.81980684	      6.34133341	      7.45025882
      2.89000000	     -2.82838254	     -5.86113282	    -15.85523126	     -0.48229565	      0.85538218	      0.20394453	     24.08485014	      2.21993934	     -0.46665609	    -32.47412283	     12.42977183	      1.09263861	     13.09990545	    -13.83265745	     -5.48522177	    -76.83620249	      6.18154936	     -9.17871518	     -6.92144937	      6.14267456	      8.08434592
      2.90000000	     -2.65856086	     -5.62458889	    -15.46178650	     -0.47466445	      0.85746196	      0.20662908	     23.17037122	      1.91519080	     -0.68696606	    -32.17175684	     12.89621864	      0.89677506	     14.77410821	    -13.60709320	     -6.16847579	    -77.88528233	      6.80046228	     -9.64468867	     -7.03046885	      5.78552647	      8.84434296
      2.91000000	     -2.45925715	     -5.34930258	    -15.15642108	     -0.46708147	      0.85967683	      0.20914593	     22.19216957	      1.57596897	     -0.84796970	    -31.76312748	     13.29551149	      0.78419440	     16.30570883	    -13.25066872	     -6.95287471	    -78.54128225	      7.29248832	     -9.72835063	     -7.15895506	      5.38533815	      9.69670842
      2.92000000	     -2.26431530	     -5.03952596	    -14.93855755	     -0.45956309	      0.86190826	      0.21151789	     21.21112358	      1.21332028	     -0.95234144	    -31.29594773	     13.64851020	      0.69906879	     17.73568881	    -12.80566862	     -7.84514978	    -78.83579975	      7.69015791	     -9.58101880	     -7.26847244	      4.95282602	     10.64074332
      2.93000000	     -2.05629753	     -4.69414793	    -14.82261791	     -0.45203525	      0.86418298	      0.21383074	     20.20109166	      0.82728389	     -0.98508503	    -30.76247692	     13.95090651	      0.62916077	     19.01472666	    -12.31456566	     -8.89467663	    -78.75230362	      7.98676419	     -9.14051187	     -7.36684383	      4.47487886	     11.67248328
      2.94000000	     -1.83047238	     -4.38539233	    -14.73552275	     -0.44449779	      0.86649277	      0.21599333	     19.11730397	      0.46272813	     -1.02141603	    -30.12954192	     14.20440341	      0.60114205	     20.16065383	    -11.85633337	     -9.99722151	    -78.34070221	      8.21960749	     -8.24572331	     -7.48047823	      4.03814675	     12.71443507
      2.95000000	     -1.62581148	     -4.10904439	    -14.71607984	     -0.43695867	      0.86872182	      0.21813973	     18.03451768	      0.14450074	     -1.02626963	    -29.45794308	     14.42201984	      0.61646539	     21.19818017	    -11.49558981	    -11.21418031	    -77.63083745	      8.47367098	     -7.30821921	     -7.56185588	      3.63386368	     13.83264012
      2.96000000	     -1.43724861	     -3.87224306	    -14.72495487	     -0.42940725	      0.87087622	      0.22022427	     16.93758853	     -0.13391712	     -1.03027210	    -28.73717989	     14.60362292	      0.66002950	     22.13398576	    -11.24417545	    -12.49816024	    -76.64797866	      8.73162368	     -6.31165517	     -7.61835357	      3.27322575	     14.97085172
      2.97000000	     -1.28029549	     -3.68145092	    -14.73254688	     -0.42184176	      0.87290779	      0.22224259	     15.84245117	     -0.36808069	     -1.06397246	    -27.97583898	     14.74379354	      0.73139408	     22.99259812	    -11.11943735	    -13.80962883	    -75.42740264	      9.03318829	     -5.30433862	     -7.63360690	      2.96594167	     16.09441979
      2.98000000	     -1.15345646	     -3.53230541	    -14.72958189	     -0.41428051	      0.87479758	      0.22417169	     14.76041232	     -0.56353006	     -1.13313769	    -27.19538360	     14.86220840	      0.81906514	     23.77944320	    -11.11263976	    -15.12573786	    -73.99565815	      9.34631097	     -4.43767399	     -7.61499531	      2.70928188	     17.19371083
      2.99000000	     -1.05706002	     -3.41831657	    -14.68307675	     -0.40671732	      0.87652466	      0.22601049	     13.68876998	     -0.72758546	     -1.25824215	    -26.39558677	     14.95453314	      0.92327485	     24.50609456	    -11.21037285	    -16.40687046	    -72.37960674	      9.69261783	     -3.73350956	     -7.55723113	      2.49034962	     18.21270907
